<?xml version="1.0" encoding="UTF-8" standalone="no"?>
<!DOCTYPE svg PUBLIC "-//W3C//DTD SVG 1.1//EN"
 "http://www.w3.org/Graphics/SVG/1.1/DTD/svg11.dtd">
<!-- Generated by graphviz version 13.1.0 (20250701.0955)
 -->
<!-- Title: am2320_basic_init Pages: 1 -->
<svg width="286pt" height="632pt"
 viewBox="0.00 0.00 286.00 632.00" xmlns="http://www.w3.org/2000/svg" xmlns:xlink="http://www.w3.org/1999/xlink">
<g id="graph0" class="graph" transform="scale(1 1) rotate(0) translate(4 628)">
<title>am2320_basic_init</title>
<!-- Node1 -->
<g id="Node000001" class="node">
<title>Node1</title>
<g id="a_Node000001"><a xlink:title="basic example init">
<polygon fill="#999999" stroke="#666666" points="97,-322 0,-322 0,-302 97,-302 97,-322"/>
<text xml:space="preserve" text-anchor="middle" x="48.5" y="-308.5" font-family="Helvetica,sans-Serif" font-size="10.00">am2320_basic_init</text>
</a>
</g>
</g>
<!-- Node2 -->
<g id="Node000002" class="node">
<title>Node2</title>
<g id="a_Node000002"><a xlink:href="group__am2320__base__driver.html#ga4b6335b19e48c2594884b734d70977f7" target="_top" xlink:title="initialize the chip">
<polygon fill="white" stroke="#666666" points="239.75,-624 171.25,-624 171.25,-604 239.75,-604 239.75,-624"/>
<text xml:space="preserve" text-anchor="middle" x="205.5" y="-610.5" font-family="Helvetica,sans-Serif" font-size="10.00">am2320_init</text>
</a>
</g>
</g>
<!-- Node1&#45;&gt;Node2 -->
<g id="edge1_Node000001_Node000002" class="edge">
<title>Node1&#45;&gt;Node2</title>
<g id="a_edge1_Node000001_Node000002"><a xlink:title=" ">
<path fill="none" stroke="#63b8ff" d="M49.2,-322.27C48.6,-363.2 52.05,-516.22 133,-595 140.29,-602.09 149.91,-606.62 159.73,-609.48"/>
<polygon fill="#63b8ff" stroke="#63b8ff" points="158.77,-612.85 169.3,-611.71 160.36,-606.03 158.77,-612.85"/>
</a>
</g>
</g>
<!-- Node3 -->
<g id="Node000003" class="node">
<title>Node3</title>
<g id="a_Node000003"><a xlink:href="group__am2320__interface__driver.html#ga46fd4dd2f12532965acda288b142e3a5" target="_top" xlink:title="interface bus deinit">
<polygon fill="white" stroke="#666666" points="262.62,-586 148.38,-586 148.38,-554 262.62,-554 262.62,-586"/>
<text xml:space="preserve" text-anchor="start" x="156.38" y="-572.5" font-family="Helvetica,sans-Serif" font-size="10.00">am2320_interface_bus</text>
<text xml:space="preserve" text-anchor="middle" x="205.5" y="-560.5" font-family="Helvetica,sans-Serif" font-size="10.00">_deinit</text>
</a>
</g>
</g>
<!-- Node1&#45;&gt;Node3 -->
<g id="edge2_Node000001_Node000003" class="edge">
<title>Node1&#45;&gt;Node3</title>
<g id="a_edge2_Node000001_Node000003"><a xlink:title=" ">
<path fill="none" stroke="#63b8ff" d="M50.15,-322.5C52.97,-358.69 67.12,-479.62 133,-545 134.78,-546.77 136.7,-548.41 138.71,-549.94"/>
<polygon fill="#63b8ff" stroke="#63b8ff" points="136.52,-552.7 146.84,-555.11 140.28,-546.79 136.52,-552.7"/>
</a>
</g>
</g>
<!-- Node4 -->
<g id="Node000004" class="node">
<title>Node4</title>
<g id="a_Node000004"><a xlink:href="group__am2320__interface__driver.html#gac7f47e1231bad639c16cd867317b6daf" target="_top" xlink:title="interface bus init">
<polygon fill="white" stroke="#666666" points="271.62,-536 139.38,-536 139.38,-516 271.62,-516 271.62,-536"/>
<text xml:space="preserve" text-anchor="middle" x="205.5" y="-522.5" font-family="Helvetica,sans-Serif" font-size="10.00">am2320_interface_bus_init</text>
</a>
</g>
</g>
<!-- Node1&#45;&gt;Node4 -->
<g id="edge3_Node000001_Node000004" class="edge">
<title>Node1&#45;&gt;Node4</title>
<g id="a_edge3_Node000001_Node000004"><a xlink:title=" ">
<path fill="none" stroke="#63b8ff" d="M50.75,-322.31C55.26,-354.77 73.66,-455.69 133,-507 134.12,-507.97 135.28,-508.89 136.49,-509.76"/>
<polygon fill="#63b8ff" stroke="#63b8ff" points="134.65,-512.74 145.04,-514.82 138.22,-506.72 134.65,-512.74"/>
</a>
</g>
</g>
<!-- Node5 -->
<g id="Node000005" class="node">
<title>Node5</title>
<g id="a_Node000005"><a xlink:href="group__am2320__interface__driver.html#ga2f42ee238a97a2f4baf543b8f293de14" target="_top" xlink:title="interface bus read">
<polygon fill="white" stroke="#666666" points="274.62,-498 136.38,-498 136.38,-478 274.62,-478 274.62,-498"/>
<text xml:space="preserve" text-anchor="middle" x="205.5" y="-484.5" font-family="Helvetica,sans-Serif" font-size="10.00">am2320_interface_bus_read</text>
</a>
</g>
</g>
<!-- Node1&#45;&gt;Node5 -->
<g id="edge4_Node000001_Node000005" class="edge">
<title>Node1&#45;&gt;Node5</title>
<g id="a_edge4_Node000001_Node000005"><a xlink:title=" ">
<path fill="none" stroke="#63b8ff" d="M51.9,-322.28C59.02,-350.39 82.7,-429.08 133,-469 134.49,-470.18 136.04,-471.29 137.65,-472.33"/>
<polygon fill="#63b8ff" stroke="#63b8ff" points="135.56,-475.18 146.03,-476.84 138.88,-469.02 135.56,-475.18"/>
</a>
</g>
</g>
<!-- Node6 -->
<g id="Node000006" class="node">
<title>Node6</title>
<g id="a_Node000006"><a xlink:href="group__am2320__interface__driver.html#gad05aad8ef59c00cedf08a5a7c0dceaba" target="_top" xlink:title="interface bus write">
<polygon fill="white" stroke="#666666" points="262.62,-460 148.38,-460 148.38,-428 262.62,-428 262.62,-460"/>
<text xml:space="preserve" text-anchor="start" x="156.38" y="-446.5" font-family="Helvetica,sans-Serif" font-size="10.00">am2320_interface_bus</text>
<text xml:space="preserve" text-anchor="middle" x="205.5" y="-434.5" font-family="Helvetica,sans-Serif" font-size="10.00">_write</text>
</a>
</g>
</g>
<!-- Node1&#45;&gt;Node6 -->
<g id="edge5_Node000001_Node000006" class="edge">
<title>Node1&#45;&gt;Node6</title>
<g id="a_edge5_Node000001_Node000006"><a xlink:title=" ">
<path fill="none" stroke="#63b8ff" d="M54.93,-322.44C66.46,-343.66 95.47,-392.08 133,-419 134.58,-420.13 136.21,-421.22 137.89,-422.26"/>
<polygon fill="#63b8ff" stroke="#63b8ff" points="136.13,-425.28 146.59,-427 139.48,-419.14 136.13,-425.28"/>
</a>
</g>
</g>
<!-- Node7 -->
<g id="Node000007" class="node">
<title>Node7</title>
<g id="a_Node000007"><a xlink:href="group__am2320__interface__driver.html#ga3efe9d21db161cb41a16c3ca0f7db8c9" target="_top" xlink:title="interface print format data">
<polygon fill="white" stroke="#666666" points="267.88,-410 143.12,-410 143.12,-378 267.88,-378 267.88,-410"/>
<text xml:space="preserve" text-anchor="start" x="151.12" y="-396.5" font-family="Helvetica,sans-Serif" font-size="10.00">am2320_interface_debug</text>
<text xml:space="preserve" text-anchor="middle" x="205.5" y="-384.5" font-family="Helvetica,sans-Serif" font-size="10.00">_print</text>
</a>
</g>
</g>
<!-- Node1&#45;&gt;Node7 -->
<g id="edge6_Node000001_Node000007" class="edge">
<title>Node1&#45;&gt;Node7</title>
<g id="a_edge6_Node000001_Node000007"><a xlink:title=" ">
<path fill="none" stroke="#63b8ff" d="M62.42,-322.42C78.28,-334.83 106.37,-355.55 133,-369 135.86,-370.44 138.83,-371.84 141.85,-373.19"/>
<polygon fill="#63b8ff" stroke="#63b8ff" points="140.31,-376.33 150.88,-376.96 143.01,-369.88 140.31,-376.33"/>
</a>
</g>
</g>
<!-- Node8 -->
<g id="Node000008" class="node">
<title>Node8</title>
<g id="a_Node000008"><a xlink:href="group__am2320__interface__driver.html#ga248699b198f305d12bca4274b4e88fbf" target="_top" xlink:title="interface delay ms">
<polygon fill="white" stroke="#666666" points="275.75,-360 135.25,-360 135.25,-340 275.75,-340 275.75,-360"/>
<text xml:space="preserve" text-anchor="middle" x="205.5" y="-346.5" font-family="Helvetica,sans-Serif" font-size="10.00">am2320_interface_delay_ms</text>
</a>
</g>
</g>
<!-- Node1&#45;&gt;Node8 -->
<g id="edge7_Node000001_Node000008" class="edge">
<title>Node1&#45;&gt;Node8</title>
<g id="a_edge7_Node000001_Node000008"><a xlink:title=" ">
<path fill="none" stroke="#63b8ff" d="M92.26,-322.48C110.39,-326.93 131.72,-332.16 150.88,-336.85"/>
<polygon fill="#63b8ff" stroke="#63b8ff" points="149.86,-340.21 160.4,-339.19 151.53,-333.41 149.86,-340.21"/>
</a>
</g>
</g>
<!-- Node9 -->
<g id="Node000009" class="node">
<title>Node9</title>
<g id="a_Node000009"><a xlink:href="group__am2320__interface__driver.html#ga58f6c672aa877db78dfee9aa3ac6dd2d" target="_top" xlink:title="interface delay us">
<polygon fill="white" stroke="#666666" points="274.25,-322 136.75,-322 136.75,-302 274.25,-302 274.25,-322"/>
<text xml:space="preserve" text-anchor="middle" x="205.5" y="-308.5" font-family="Helvetica,sans-Serif" font-size="10.00">am2320_interface_delay_us</text>
</a>
</g>
</g>
<!-- Node1&#45;&gt;Node9 -->
<g id="edge8_Node000001_Node000009" class="edge">
<title>Node1&#45;&gt;Node9</title>
<g id="a_edge8_Node000001_Node000009"><a xlink:title=" ">
<path fill="none" stroke="#63b8ff" d="M97.27,-312C106.06,-312 115.45,-312 124.88,-312"/>
<polygon fill="#63b8ff" stroke="#63b8ff" points="124.86,-315.5 134.86,-312 124.86,-308.5 124.86,-315.5"/>
</a>
</g>
</g>
<!-- Node10 -->
<g id="Node000010" class="node">
<title>Node10</title>
<g id="a_Node000010"><a xlink:href="group__am2320__interface__driver.html#ga7488a19288d3aaeeeb157ef6f1bb330c" target="_top" xlink:title="interface disable the interrupt">
<polygon fill="white" stroke="#666666" points="278,-284 133,-284 133,-264 278,-264 278,-284"/>
<text xml:space="preserve" text-anchor="middle" x="205.5" y="-270.5" font-family="Helvetica,sans-Serif" font-size="10.00">am2320_interface_disable_irq</text>
</a>
</g>
</g>
<!-- Node1&#45;&gt;Node10 -->
<g id="edge9_Node000001_Node000010" class="edge">
<title>Node1&#45;&gt;Node10</title>
<g id="a_edge9_Node000001_Node000010"><a xlink:title=" ">
<path fill="none" stroke="#63b8ff" d="M92.26,-301.52C110.39,-297.07 131.72,-291.84 150.88,-287.15"/>
<polygon fill="#63b8ff" stroke="#63b8ff" points="151.53,-290.59 160.4,-284.81 149.86,-283.79 151.53,-290.59"/>
</a>
</g>
</g>
<!-- Node11 -->
<g id="Node000011" class="node">
<title>Node11</title>
<g id="a_Node000011"><a xlink:href="group__am2320__interface__driver.html#gac7eb4601fadabf96abe3566cc49825e5" target="_top" xlink:title="interface enable the interrupt">
<polygon fill="white" stroke="#666666" points="276.88,-246 134.12,-246 134.12,-226 276.88,-226 276.88,-246"/>
<text xml:space="preserve" text-anchor="middle" x="205.5" y="-232.5" font-family="Helvetica,sans-Serif" font-size="10.00">am2320_interface_enable_irq</text>
</a>
</g>
</g>
<!-- Node1&#45;&gt;Node11 -->
<g id="edge10_Node000001_Node000011" class="edge">
<title>Node1&#45;&gt;Node11</title>
<g id="a_edge10_Node000001_Node000011"><a xlink:title=" ">
<path fill="none" stroke="#63b8ff" d="M61.7,-301.68C77.29,-288.98 105.55,-267.57 133,-255 136.96,-253.19 141.12,-251.52 145.37,-250"/>
<polygon fill="#63b8ff" stroke="#63b8ff" points="146.18,-253.41 154.59,-246.96 143.99,-246.76 146.18,-253.41"/>
</a>
</g>
</g>
<!-- Node12 -->
<g id="Node000012" class="node">
<title>Node12</title>
<g id="a_Node000012"><a xlink:href="group__am2320__interface__driver.html#ga1c775be2bdbea6d983bab1c63ab418d6" target="_top" xlink:title="interface iic deinit">
<polygon fill="white" stroke="#666666" points="259.62,-208 151.38,-208 151.38,-176 259.62,-176 259.62,-208"/>
<text xml:space="preserve" text-anchor="start" x="159.38" y="-194.5" font-family="Helvetica,sans-Serif" font-size="10.00">am2320_interface_iic</text>
<text xml:space="preserve" text-anchor="middle" x="205.5" y="-182.5" font-family="Helvetica,sans-Serif" font-size="10.00">_deinit</text>
</a>
</g>
</g>
<!-- Node1&#45;&gt;Node12 -->
<g id="edge11_Node000001_Node000012" class="edge">
<title>Node1&#45;&gt;Node12</title>
<g id="a_edge11_Node000001_Node000012"><a xlink:title=" ">
<path fill="none" stroke="#63b8ff" d="M55.99,-301.57C68.55,-282.22 98.04,-240.56 133,-217 135.52,-215.3 138.17,-213.71 140.9,-212.21"/>
<polygon fill="#63b8ff" stroke="#63b8ff" points="142.29,-215.43 149.72,-207.88 139.2,-209.14 142.29,-215.43"/>
</a>
</g>
</g>
<!-- Node13 -->
<g id="Node000013" class="node">
<title>Node13</title>
<g id="a_Node000013"><a xlink:href="group__am2320__interface__driver.html#ga9575e76b6edd7b0f7a6101fcc1f5ea7c" target="_top" xlink:title="interface iic init">
<polygon fill="white" stroke="#666666" points="268.62,-158 142.38,-158 142.38,-138 268.62,-138 268.62,-158"/>
<text xml:space="preserve" text-anchor="middle" x="205.5" y="-144.5" font-family="Helvetica,sans-Serif" font-size="10.00">am2320_interface_iic_init</text>
</a>
</g>
</g>
<!-- Node1&#45;&gt;Node13 -->
<g id="edge12_Node000001_Node000013" class="edge">
<title>Node1&#45;&gt;Node13</title>
<g id="a_edge12_Node000001_Node000013"><a xlink:title=" ">
<path fill="none" stroke="#63b8ff" d="M52.38,-301.73C60.38,-275.11 85.51,-203.41 133,-167 134.54,-165.82 136.15,-164.71 137.81,-163.67"/>
<polygon fill="#63b8ff" stroke="#63b8ff" points="139.25,-166.87 146.5,-159.14 136.01,-160.66 139.25,-166.87"/>
</a>
</g>
</g>
<!-- Node14 -->
<g id="Node000014" class="node">
<title>Node14</title>
<g id="a_Node000014"><a xlink:href="group__am2320__interface__driver.html#ga372d8c3f760a0c2eb34e3bb97776bb3c" target="_top" xlink:title="interface iic read command">
<polygon fill="white" stroke="#666666" points="259.62,-120 151.38,-120 151.38,-88 259.62,-88 259.62,-120"/>
<text xml:space="preserve" text-anchor="start" x="159.38" y="-106.5" font-family="Helvetica,sans-Serif" font-size="10.00">am2320_interface_iic</text>
<text xml:space="preserve" text-anchor="middle" x="205.5" y="-94.5" font-family="Helvetica,sans-Serif" font-size="10.00">_read_cmd</text>
</a>
</g>
</g>
<!-- Node1&#45;&gt;Node14 -->
<g id="edge13_Node000001_Node000014" class="edge">
<title>Node1&#45;&gt;Node14</title>
<g id="a_edge13_Node000001_Node000014"><a xlink:title=" ">
<path fill="none" stroke="#63b8ff" d="M51.29,-301.63C57.14,-270.78 78.56,-178.66 133,-129 135.54,-126.68 138.31,-124.58 141.23,-122.66"/>
<polygon fill="#63b8ff" stroke="#63b8ff" points="142.67,-125.87 149.68,-117.93 139.25,-119.77 142.67,-125.87"/>
</a>
</g>
</g>
<!-- Node15 -->
<g id="Node000015" class="node">
<title>Node15</title>
<g id="a_Node000015"><a xlink:href="group__am2320__interface__driver.html#ga3d13f9287cc7c82cd3cb575fa7d11fc1" target="_top" xlink:title="interface iic write command">
<polygon fill="white" stroke="#666666" points="259.62,-70 151.38,-70 151.38,-38 259.62,-38 259.62,-70"/>
<text xml:space="preserve" text-anchor="start" x="159.38" y="-56.5" font-family="Helvetica,sans-Serif" font-size="10.00">am2320_interface_iic</text>
<text xml:space="preserve" text-anchor="middle" x="205.5" y="-44.5" font-family="Helvetica,sans-Serif" font-size="10.00">_write_cmd</text>
</a>
</g>
</g>
<!-- Node1&#45;&gt;Node15 -->
<g id="edge14_Node000001_Node000015" class="edge">
<title>Node1&#45;&gt;Node15</title>
<g id="a_edge14_Node000001_Node000015"><a xlink:title=" ">
<path fill="none" stroke="#63b8ff" d="M50.15,-301.5C52.97,-265.31 67.12,-144.38 133,-79 135.49,-76.53 138.23,-74.31 141.15,-72.3"/>
<polygon fill="#63b8ff" stroke="#63b8ff" points="142.77,-75.41 149.67,-67.37 139.26,-69.35 142.77,-75.41"/>
</a>
</g>
</g>
<!-- Node16 -->
<g id="Node000016" class="node">
<title>Node16</title>
<g id="a_Node000016"><a xlink:href="group__am2320__base__driver.html#gae9d091ad8a25fced25701bfbeba0d235" target="_top" xlink:title="set the chip interface">
<polygon fill="white" stroke="#666666" points="261.5,-20 149.5,-20 149.5,0 261.5,0 261.5,-20"/>
<text xml:space="preserve" text-anchor="middle" x="205.5" y="-6.5" font-family="Helvetica,sans-Serif" font-size="10.00">am2320_set_interface</text>
</a>
</g>
</g>
<!-- Node1&#45;&gt;Node16 -->
<g id="edge15_Node000001_Node000016" class="edge">
<title>Node1&#45;&gt;Node16</title>
<g id="a_edge15_Node000001_Node000016"><a xlink:title=" ">
<path fill="none" stroke="#63b8ff" d="M49.2,-301.73C48.6,-260.8 52.05,-107.78 133,-29 134.87,-27.18 136.89,-25.53 139.03,-24.03"/>
<polygon fill="#63b8ff" stroke="#63b8ff" points="140.73,-27.09 147.74,-19.15 137.3,-20.99 140.73,-27.09"/>
</a>
</g>
</g>
</g>
</svg>
