<?xml version="1.0" encoding="UTF-8" standalone="no"?>
<!DOCTYPE svg PUBLIC "-//W3C//DTD SVG 1.1//EN"
 "http://www.w3.org/Graphics/SVG/1.1/DTD/svg11.dtd">
<!-- Generated by graphviz version 13.1.0 (20250701.0955)
 -->
<!-- Title: am2320_read_test Pages: 1 -->
<svg width="285pt" height="1138pt"
 viewBox="0.00 0.00 285.00 1138.00" xmlns="http://www.w3.org/2000/svg" xmlns:xlink="http://www.w3.org/1999/xlink">
<g id="graph0" class="graph" transform="scale(1 1) rotate(0) translate(4 1134)">
<title>am2320_read_test</title>
<!-- Node1 -->
<g id="Node000001" class="node">
<title>Node1</title>
<g id="a_Node000001"><a xlink:title="read test">
<polygon fill="#999999" stroke="#666666" points="96.25,-584 0,-584 0,-564 96.25,-564 96.25,-584"/>
<text xml:space="preserve" text-anchor="middle" x="48.12" y="-570.5" font-family="Helvetica,sans-Serif" font-size="10.00">am2320_read_test</text>
</a>
</g>
</g>
<!-- Node2 -->
<g id="Node000002" class="node">
<title>Node2</title>
<g id="a_Node000002"><a xlink:href="group__am2320__base__driver.html#gabb2bc5f4d8a764ea230ca97d611bcb4d" target="_top" xlink:title="close the chip">
<polygon fill="white" stroke="#666666" points="244.25,-1130 165.25,-1130 165.25,-1110 244.25,-1110 244.25,-1130"/>
<text xml:space="preserve" text-anchor="middle" x="204.75" y="-1116.5" font-family="Helvetica,sans-Serif" font-size="10.00">am2320_deinit</text>
</a>
</g>
</g>
<!-- Node1&#45;&gt;Node2 -->
<g id="edge1_Node000001_Node000002" class="edge">
<title>Node1&#45;&gt;Node2</title>
<g id="a_edge1_Node000001_Node000002"><a xlink:title=" ">
<path fill="none" stroke="#63b8ff" d="M49.27,-584.49C50.45,-651.63 60.14,-1021.03 132.25,-1101 138.05,-1107.43 145.76,-1111.8 153.96,-1114.73"/>
<polygon fill="#63b8ff" stroke="#63b8ff" points="152.89,-1118.07 163.47,-1117.41 154.79,-1111.33 152.89,-1118.07"/>
</a>
</g>
</g>
<!-- Node3 -->
<g id="Node000003" class="node">
<title>Node3</title>
<g id="a_Node000003"><a xlink:href="group__am2320__base__driver.html#ga8d500f1fa31cda0858ad6be332365d0e" target="_top" xlink:title="get device id">
<polygon fill="white" stroke="#666666" points="262.62,-1092 146.88,-1092 146.88,-1072 262.62,-1072 262.62,-1092"/>
<text xml:space="preserve" text-anchor="middle" x="204.75" y="-1078.5" font-family="Helvetica,sans-Serif" font-size="10.00">am2320_get_device_id</text>
</a>
</g>
</g>
<!-- Node1&#45;&gt;Node3 -->
<g id="edge2_Node000001_Node000003" class="edge">
<title>Node1&#45;&gt;Node3</title>
<g id="a_edge2_Node000001_Node000003"><a xlink:title=" ">
<path fill="none" stroke="#63b8ff" d="M49.4,-584.14C51.35,-647.55 64.91,-989.21 132.25,-1063 133.74,-1064.64 135.36,-1066.14 137.08,-1067.52"/>
<polygon fill="#63b8ff" stroke="#63b8ff" points="134.79,-1070.21 145.11,-1072.62 138.54,-1064.3 134.79,-1070.21"/>
</a>
</g>
</g>
<!-- Node4 -->
<g id="Node000004" class="node">
<title>Node4</title>
<g id="a_Node000004"><a xlink:href="group__am2320__base__driver.html#ga2cf103482843633fb222a8e0ac1d46f7" target="_top" xlink:title="get device type">
<polygon fill="white" stroke="#666666" points="268.25,-1054 141.25,-1054 141.25,-1034 268.25,-1034 268.25,-1054"/>
<text xml:space="preserve" text-anchor="middle" x="204.75" y="-1040.5" font-family="Helvetica,sans-Serif" font-size="10.00">am2320_get_device_type</text>
</a>
</g>
</g>
<!-- Node1&#45;&gt;Node4 -->
<g id="edge3_Node000001_Node000004" class="edge">
<title>Node1&#45;&gt;Node4</title>
<g id="a_edge3_Node000001_Node000004"><a xlink:title=" ">
<path fill="none" stroke="#63b8ff" d="M49.56,-584.13C52.37,-644.6 69.79,-957.51 132.25,-1025 132.84,-1025.64 133.45,-1026.25 134.07,-1026.85"/>
<polygon fill="#63b8ff" stroke="#63b8ff" points="131.73,-1029.47 141.84,-1032.64 135.91,-1023.85 131.73,-1029.47"/>
</a>
</g>
</g>
<!-- Node5 -->
<g id="Node000005" class="node">
<title>Node5</title>
<g id="a_Node000005"><a xlink:href="group__am2320__base__driver.html#ga92a23e7deeb120de016744a909897be9" target="_top" xlink:title="get status">
<polygon fill="white" stroke="#666666" points="255.5,-1016 154,-1016 154,-996 255.5,-996 255.5,-1016"/>
<text xml:space="preserve" text-anchor="middle" x="204.75" y="-1002.5" font-family="Helvetica,sans-Serif" font-size="10.00">am2320_get_status</text>
</a>
</g>
</g>
<!-- Node1&#45;&gt;Node5 -->
<g id="edge4_Node000001_Node000005" class="edge">
<title>Node1&#45;&gt;Node5</title>
<g id="a_edge4_Node000001_Node000005"><a xlink:title=" ">
<path fill="none" stroke="#63b8ff" d="M49.76,-584.4C53.54,-642.42 74.75,-925.87 132.25,-987 135.52,-990.47 139.34,-993.34 143.49,-995.7"/>
<polygon fill="#63b8ff" stroke="#63b8ff" points="141.73,-998.74 152.28,-999.71 144.64,-992.37 141.73,-998.74"/>
</a>
</g>
</g>
<!-- Node6 -->
<g id="Node000006" class="node">
<title>Node6</title>
<g id="a_Node000006"><a xlink:href="group__am2320__base__driver.html#ga988f76e124167ab71c6b384a92903530" target="_top" xlink:title="get user reg1">
<polygon fill="white" stroke="#666666" points="263.38,-978 146.12,-978 146.12,-958 263.38,-958 263.38,-978"/>
<text xml:space="preserve" text-anchor="middle" x="204.75" y="-964.5" font-family="Helvetica,sans-Serif" font-size="10.00">am2320_get_user_reg1</text>
</a>
</g>
</g>
<!-- Node1&#45;&gt;Node6 -->
<g id="edge5_Node000001_Node000006" class="edge">
<title>Node1&#45;&gt;Node6</title>
<g id="a_edge5_Node000001_Node000006"><a xlink:title=" ">
<path fill="none" stroke="#63b8ff" d="M49.97,-584.15C54.69,-638.43 79.51,-894.02 132.25,-949 133.59,-950.4 135.03,-951.7 136.54,-952.91"/>
<polygon fill="#63b8ff" stroke="#63b8ff" points="134.32,-955.65 144.63,-958.07 138.08,-949.74 134.32,-955.65"/>
</a>
</g>
</g>
<!-- Node7 -->
<g id="Node000007" class="node">
<title>Node7</title>
<g id="a_Node000007"><a xlink:href="group__am2320__base__driver.html#gaf73b1285c426d037445353bf0edea5fb" target="_top" xlink:title="get user reg2">
<polygon fill="white" stroke="#666666" points="263.38,-940 146.12,-940 146.12,-920 263.38,-920 263.38,-940"/>
<text xml:space="preserve" text-anchor="middle" x="204.75" y="-926.5" font-family="Helvetica,sans-Serif" font-size="10.00">am2320_get_user_reg2</text>
</a>
</g>
</g>
<!-- Node1&#45;&gt;Node7 -->
<g id="edge6_Node000001_Node000007" class="edge">
<title>Node1&#45;&gt;Node7</title>
<g id="a_edge6_Node000001_Node000007"><a xlink:title=" ">
<path fill="none" stroke="#63b8ff" d="M50.28,-584.45C56.16,-635.97 84.43,-862.31 132.25,-911 133.46,-912.23 134.74,-913.39 136.08,-914.47"/>
<polygon fill="#63b8ff" stroke="#63b8ff" points="134.08,-917.34 144.39,-919.79 137.86,-911.45 134.08,-917.34"/>
</a>
</g>
</g>
<!-- Node8 -->
<g id="Node000008" class="node">
<title>Node8</title>
<g id="a_Node000008"><a xlink:href="group__am2320__base__driver.html#ga26d21564b6f10896d20a1e93fbe2716b" target="_top" xlink:title="get version">
<polygon fill="white" stroke="#666666" points="257.75,-902 151.75,-902 151.75,-882 257.75,-882 257.75,-902"/>
<text xml:space="preserve" text-anchor="middle" x="204.75" y="-888.5" font-family="Helvetica,sans-Serif" font-size="10.00">am2320_get_version</text>
</a>
</g>
</g>
<!-- Node1&#45;&gt;Node8 -->
<g id="edge7_Node000001_Node000008" class="edge">
<title>Node1&#45;&gt;Node8</title>
<g id="a_edge7_Node000001_Node000008"><a xlink:title=" ">
<path fill="none" stroke="#63b8ff" d="M48.62,-584.26C47.15,-626.55 47.38,-789.1 132.25,-873 134.94,-875.66 137.97,-877.97 141.21,-879.95"/>
<polygon fill="#63b8ff" stroke="#63b8ff" points="139.59,-883.06 150.11,-884.36 142.7,-876.79 139.59,-883.06"/>
</a>
</g>
</g>
<!-- Node9 -->
<g id="Node000009" class="node">
<title>Node9</title>
<g id="a_Node000009"><a xlink:href="group__am2320__base__driver.html#gae8da02a29c7b3a7179a438ea64e5439f" target="_top" xlink:title="get chip&#39;s information">
<polygon fill="white" stroke="#666666" points="240.5,-864 169,-864 169,-844 240.5,-844 240.5,-864"/>
<text xml:space="preserve" text-anchor="middle" x="204.75" y="-850.5" font-family="Helvetica,sans-Serif" font-size="10.00">am2320_info</text>
</a>
</g>
</g>
<!-- Node1&#45;&gt;Node9 -->
<g id="edge8_Node000001_Node000009" class="edge">
<title>Node1&#45;&gt;Node9</title>
<g id="a_edge8_Node000001_Node000009"><a xlink:title=" ">
<path fill="none" stroke="#63b8ff" d="M49.11,-584.28C49.62,-623.23 56.84,-763.17 132.25,-835 139.27,-841.69 148.36,-846.08 157.7,-848.95"/>
<polygon fill="#63b8ff" stroke="#63b8ff" points="156.64,-852.3 167.19,-851.31 158.33,-845.5 156.64,-852.3"/>
</a>
</g>
</g>
<!-- Node10 -->
<g id="Node000010" class="node">
<title>Node10</title>
<g id="a_Node000010"><a xlink:href="group__am2320__base__driver.html#ga4b6335b19e48c2594884b734d70977f7" target="_top" xlink:title="initialize the chip">
<polygon fill="white" stroke="#666666" points="239,-826 170.5,-826 170.5,-806 239,-806 239,-826"/>
<text xml:space="preserve" text-anchor="middle" x="204.75" y="-812.5" font-family="Helvetica,sans-Serif" font-size="10.00">am2320_init</text>
</a>
</g>
</g>
<!-- Node1&#45;&gt;Node10 -->
<g id="edge9_Node000001_Node000010" class="edge">
<title>Node1&#45;&gt;Node10</title>
<g id="a_edge9_Node000001_Node000010"><a xlink:title=" ">
<path fill="none" stroke="#63b8ff" d="M49.76,-584.49C52.48,-620.05 66.31,-737.17 132.25,-797 139.78,-803.84 149.5,-808.26 159.32,-811.11"/>
<polygon fill="#63b8ff" stroke="#63b8ff" points="158.35,-814.48 168.88,-813.36 159.95,-807.66 158.35,-814.48"/>
</a>
</g>
</g>
<!-- Node11 -->
<g id="Node000011" class="node">
<title>Node11</title>
<g id="a_Node000011"><a xlink:href="group__am2320__interface__driver.html#ga46fd4dd2f12532965acda288b142e3a5" target="_top" xlink:title="interface bus deinit">
<polygon fill="white" stroke="#666666" points="261.88,-788 147.62,-788 147.62,-756 261.88,-756 261.88,-788"/>
<text xml:space="preserve" text-anchor="start" x="155.62" y="-774.5" font-family="Helvetica,sans-Serif" font-size="10.00">am2320_interface_bus</text>
<text xml:space="preserve" text-anchor="middle" x="204.75" y="-762.5" font-family="Helvetica,sans-Serif" font-size="10.00">_deinit</text>
</a>
</g>
</g>
<!-- Node1&#45;&gt;Node11 -->
<g id="edge10_Node000001_Node000011" class="edge">
<title>Node1&#45;&gt;Node11</title>
<g id="a_edge10_Node000001_Node000011"><a xlink:title=" ">
<path fill="none" stroke="#63b8ff" d="M51.16,-584.23C57.57,-613.82 80.09,-700.35 132.25,-747 134.08,-748.64 136.03,-750.17 138.06,-751.6"/>
<polygon fill="#63b8ff" stroke="#63b8ff" points="135.78,-754.32 146.15,-756.49 139.4,-748.32 135.78,-754.32"/>
</a>
</g>
</g>
<!-- Node12 -->
<g id="Node000012" class="node">
<title>Node12</title>
<g id="a_Node000012"><a xlink:href="group__am2320__interface__driver.html#gac7f47e1231bad639c16cd867317b6daf" target="_top" xlink:title="interface bus init">
<polygon fill="white" stroke="#666666" points="270.88,-738 138.62,-738 138.62,-718 270.88,-718 270.88,-738"/>
<text xml:space="preserve" text-anchor="middle" x="204.75" y="-724.5" font-family="Helvetica,sans-Serif" font-size="10.00">am2320_interface_bus_init</text>
</a>
</g>
</g>
<!-- Node1&#45;&gt;Node12 -->
<g id="edge11_Node000001_Node000012" class="edge">
<title>Node1&#45;&gt;Node12</title>
<g id="a_edge11_Node000001_Node000012"><a xlink:title=" ">
<path fill="none" stroke="#63b8ff" d="M52.44,-584.3C61.16,-609.66 87.19,-675.5 132.25,-709 133.99,-710.29 135.81,-711.5 137.69,-712.62"/>
<polygon fill="#63b8ff" stroke="#63b8ff" points="135.7,-715.53 146.2,-716.9 138.84,-709.28 135.7,-715.53"/>
</a>
</g>
</g>
<!-- Node13 -->
<g id="Node000013" class="node">
<title>Node13</title>
<g id="a_Node000013"><a xlink:href="group__am2320__interface__driver.html#ga2f42ee238a97a2f4baf543b8f293de14" target="_top" xlink:title="interface bus read">
<polygon fill="white" stroke="#666666" points="273.88,-700 135.62,-700 135.62,-680 273.88,-680 273.88,-700"/>
<text xml:space="preserve" text-anchor="middle" x="204.75" y="-686.5" font-family="Helvetica,sans-Serif" font-size="10.00">am2320_interface_bus_read</text>
</a>
</g>
</g>
<!-- Node1&#45;&gt;Node13 -->
<g id="edge12_Node000001_Node000013" class="edge">
<title>Node1&#45;&gt;Node13</title>
<g id="a_edge12_Node000001_Node000013"><a xlink:title=" ">
<path fill="none" stroke="#63b8ff" d="M54.98,-584.28C66.87,-604.21 95.82,-648.11 132.25,-671 134.54,-672.44 136.95,-673.77 139.42,-675.01"/>
<polygon fill="#63b8ff" stroke="#63b8ff" points="137.97,-678.19 148.54,-678.93 140.74,-671.76 137.97,-678.19"/>
</a>
</g>
</g>
<!-- Node14 -->
<g id="Node000014" class="node">
<title>Node14</title>
<g id="a_Node000014"><a xlink:href="group__am2320__interface__driver.html#gad05aad8ef59c00cedf08a5a7c0dceaba" target="_top" xlink:title="interface bus write">
<polygon fill="white" stroke="#666666" points="261.88,-662 147.62,-662 147.62,-630 261.88,-630 261.88,-662"/>
<text xml:space="preserve" text-anchor="start" x="155.62" y="-648.5" font-family="Helvetica,sans-Serif" font-size="10.00">am2320_interface_bus</text>
<text xml:space="preserve" text-anchor="middle" x="204.75" y="-636.5" font-family="Helvetica,sans-Serif" font-size="10.00">_write</text>
</a>
</g>
</g>
<!-- Node1&#45;&gt;Node14 -->
<g id="edge13_Node000001_Node000014" class="edge">
<title>Node1&#45;&gt;Node14</title>
<g id="a_edge13_Node000001_Node000014"><a xlink:title=" ">
<path fill="none" stroke="#63b8ff" d="M65.54,-584.44C81.99,-594.62 108.24,-610.12 132.25,-621 135.6,-622.52 139.08,-624.01 142.61,-625.45"/>
<polygon fill="#63b8ff" stroke="#63b8ff" points="141.3,-628.69 151.89,-629.08 143.85,-622.18 141.3,-628.69"/>
</a>
</g>
</g>
<!-- Node15 -->
<g id="Node000015" class="node">
<title>Node15</title>
<g id="a_Node000015"><a xlink:href="group__am2320__interface__driver.html#ga3efe9d21db161cb41a16c3ca0f7db8c9" target="_top" xlink:title="interface print format data">
<polygon fill="white" stroke="#666666" points="267.12,-612 142.38,-612 142.38,-580 267.12,-580 267.12,-612"/>
<text xml:space="preserve" text-anchor="start" x="150.38" y="-598.5" font-family="Helvetica,sans-Serif" font-size="10.00">am2320_interface_debug</text>
<text xml:space="preserve" text-anchor="middle" x="204.75" y="-586.5" font-family="Helvetica,sans-Serif" font-size="10.00">_print</text>
</a>
</g>
</g>
<!-- Node1&#45;&gt;Node15 -->
<g id="edge14_Node000001_Node000015" class="edge">
<title>Node1&#45;&gt;Node15</title>
<g id="a_edge14_Node000001_Node000015"><a xlink:title=" ">
<path fill="none" stroke="#63b8ff" d="M96.36,-580.72C107.26,-582.27 119.11,-583.96 130.82,-585.62"/>
<polygon fill="#63b8ff" stroke="#63b8ff" points="130.09,-589.05 140.48,-587 131.07,-582.12 130.09,-589.05"/>
</a>
</g>
</g>
<!-- Node16 -->
<g id="Node000016" class="node">
<title>Node16</title>
<g id="a_Node000016"><a xlink:href="group__am2320__interface__driver.html#ga248699b198f305d12bca4274b4e88fbf" target="_top" xlink:title="interface delay ms">
<polygon fill="white" stroke="#666666" points="275,-562 134.5,-562 134.5,-542 275,-542 275,-562"/>
<text xml:space="preserve" text-anchor="middle" x="204.75" y="-548.5" font-family="Helvetica,sans-Serif" font-size="10.00">am2320_interface_delay_ms</text>
</a>
</g>
</g>
<!-- Node1&#45;&gt;Node16 -->
<g id="edge15_Node000001_Node000016" class="edge">
<title>Node1&#45;&gt;Node16</title>
<g id="a_edge15_Node000001_Node000016"><a xlink:title=" ">
<path fill="none" stroke="#63b8ff" d="M96.36,-567.28C104.73,-566.09 113.65,-564.82 122.64,-563.54"/>
<polygon fill="#63b8ff" stroke="#63b8ff" points="123.13,-567.01 132.54,-562.13 122.14,-560.08 123.13,-567.01"/>
</a>
</g>
</g>
<!-- Node17 -->
<g id="Node000017" class="node">
<title>Node17</title>
<g id="a_Node000017"><a xlink:href="group__am2320__interface__driver.html#ga58f6c672aa877db78dfee9aa3ac6dd2d" target="_top" xlink:title="interface delay us">
<polygon fill="white" stroke="#666666" points="273.5,-524 136,-524 136,-504 273.5,-504 273.5,-524"/>
<text xml:space="preserve" text-anchor="middle" x="204.75" y="-510.5" font-family="Helvetica,sans-Serif" font-size="10.00">am2320_interface_delay_us</text>
</a>
</g>
</g>
<!-- Node1&#45;&gt;Node17 -->
<g id="edge16_Node000001_Node000017" class="edge">
<title>Node1&#45;&gt;Node17</title>
<g id="a_edge16_Node000001_Node000017"><a xlink:title=" ">
<path fill="none" stroke="#63b8ff" d="M67.47,-563.63C84.01,-554.6 109.2,-541.65 132.25,-533 137.32,-531.1 142.66,-529.31 148.04,-527.64"/>
<polygon fill="#63b8ff" stroke="#63b8ff" points="149.01,-531 157.62,-524.83 147.04,-524.29 149.01,-531"/>
</a>
</g>
</g>
<!-- Node18 -->
<g id="Node000018" class="node">
<title>Node18</title>
<g id="a_Node000018"><a xlink:href="group__am2320__interface__driver.html#ga7488a19288d3aaeeeb157ef6f1bb330c" target="_top" xlink:title="interface disable the interrupt">
<polygon fill="white" stroke="#666666" points="277.25,-486 132.25,-486 132.25,-466 277.25,-466 277.25,-486"/>
<text xml:space="preserve" text-anchor="middle" x="204.75" y="-472.5" font-family="Helvetica,sans-Serif" font-size="10.00">am2320_interface_disable_irq</text>
</a>
</g>
</g>
<!-- Node1&#45;&gt;Node18 -->
<g id="edge17_Node000001_Node000018" class="edge">
<title>Node1&#45;&gt;Node18</title>
<g id="a_edge17_Node000001_Node000018"><a xlink:title=" ">
<path fill="none" stroke="#63b8ff" d="M57.12,-563.56C70.69,-546.59 99.93,-513.07 132.25,-495 135.09,-493.41 138.06,-491.95 141.12,-490.61"/>
<polygon fill="#63b8ff" stroke="#63b8ff" points="142.28,-493.92 150.35,-487.04 139.76,-487.39 142.28,-493.92"/>
</a>
</g>
</g>
<!-- Node19 -->
<g id="Node000019" class="node">
<title>Node19</title>
<g id="a_Node000019"><a xlink:href="group__am2320__interface__driver.html#gac7eb4601fadabf96abe3566cc49825e5" target="_top" xlink:title="interface enable the interrupt">
<polygon fill="white" stroke="#666666" points="276.12,-448 133.38,-448 133.38,-428 276.12,-428 276.12,-448"/>
<text xml:space="preserve" text-anchor="middle" x="204.75" y="-434.5" font-family="Helvetica,sans-Serif" font-size="10.00">am2320_interface_enable_irq</text>
</a>
</g>
</g>
<!-- Node1&#45;&gt;Node19 -->
<g id="edge18_Node000001_Node000019" class="edge">
<title>Node1&#45;&gt;Node19</title>
<g id="a_edge18_Node000001_Node000019"><a xlink:title=" ">
<path fill="none" stroke="#63b8ff" d="M53.44,-563.73C63.6,-540.84 91.3,-485.4 132.25,-457 134.19,-455.66 136.22,-454.41 138.31,-453.25"/>
<polygon fill="#63b8ff" stroke="#63b8ff" points="139.59,-456.51 147.14,-449.08 136.61,-450.18 139.59,-456.51"/>
</a>
</g>
</g>
<!-- Node20 -->
<g id="Node000020" class="node">
<title>Node20</title>
<g id="a_Node000020"><a xlink:href="group__am2320__interface__driver.html#ga1c775be2bdbea6d983bab1c63ab418d6" target="_top" xlink:title="interface iic deinit">
<polygon fill="white" stroke="#666666" points="258.88,-410 150.62,-410 150.62,-378 258.88,-378 258.88,-410"/>
<text xml:space="preserve" text-anchor="start" x="158.62" y="-396.5" font-family="Helvetica,sans-Serif" font-size="10.00">am2320_interface_iic</text>
<text xml:space="preserve" text-anchor="middle" x="204.75" y="-384.5" font-family="Helvetica,sans-Serif" font-size="10.00">_deinit</text>
</a>
</g>
</g>
<!-- Node1&#45;&gt;Node20 -->
<g id="edge19_Node000001_Node000020" class="edge">
<title>Node1&#45;&gt;Node20</title>
<g id="a_edge19_Node000001_Node000020"><a xlink:title=" ">
<path fill="none" stroke="#63b8ff" d="M51.82,-563.65C59.51,-536.07 84.21,-460.08 132.25,-419 134.73,-416.88 137.41,-414.93 140.21,-413.15"/>
<polygon fill="#63b8ff" stroke="#63b8ff" points="141.76,-416.29 148.84,-408.41 138.39,-410.15 141.76,-416.29"/>
</a>
</g>
</g>
<!-- Node21 -->
<g id="Node000021" class="node">
<title>Node21</title>
<g id="a_Node000021"><a xlink:href="group__am2320__interface__driver.html#ga9575e76b6edd7b0f7a6101fcc1f5ea7c" target="_top" xlink:title="interface iic init">
<polygon fill="white" stroke="#666666" points="267.88,-360 141.62,-360 141.62,-340 267.88,-340 267.88,-360"/>
<text xml:space="preserve" text-anchor="middle" x="204.75" y="-346.5" font-family="Helvetica,sans-Serif" font-size="10.00">am2320_interface_iic_init</text>
</a>
</g>
</g>
<!-- Node1&#45;&gt;Node21 -->
<g id="edge20_Node000001_Node000021" class="edge">
<title>Node1&#45;&gt;Node21</title>
<g id="a_edge20_Node000001_Node000021"><a xlink:title=" ">
<path fill="none" stroke="#63b8ff" d="M50.13,-563.65C53.94,-530.09 70.61,-423.36 132.25,-369 133.33,-368.04 134.46,-367.14 135.62,-366.27"/>
<polygon fill="#63b8ff" stroke="#63b8ff" points="137.13,-369.45 143.88,-361.28 133.51,-363.46 137.13,-369.45"/>
</a>
</g>
</g>
<!-- Node22 -->
<g id="Node000022" class="node">
<title>Node22</title>
<g id="a_Node000022"><a xlink:href="group__am2320__interface__driver.html#ga372d8c3f760a0c2eb34e3bb97776bb3c" target="_top" xlink:title="interface iic read command">
<polygon fill="white" stroke="#666666" points="258.88,-322 150.62,-322 150.62,-290 258.88,-290 258.88,-322"/>
<text xml:space="preserve" text-anchor="start" x="158.62" y="-308.5" font-family="Helvetica,sans-Serif" font-size="10.00">am2320_interface_iic</text>
<text xml:space="preserve" text-anchor="middle" x="204.75" y="-296.5" font-family="Helvetica,sans-Serif" font-size="10.00">_read_cmd</text>
</a>
</g>
</g>
<!-- Node1&#45;&gt;Node22 -->
<g id="edge21_Node000001_Node000022" class="edge">
<title>Node1&#45;&gt;Node22</title>
<g id="a_edge21_Node000001_Node000022"><a xlink:title=" ">
<path fill="none" stroke="#63b8ff" d="M49.58,-563.58C51.75,-526.52 64.07,-399.65 132.25,-331 134.72,-328.51 137.45,-326.28 140.36,-324.26"/>
<polygon fill="#63b8ff" stroke="#63b8ff" points="141.98,-327.37 148.85,-319.31 138.45,-321.32 141.98,-327.37"/>
</a>
</g>
</g>
<!-- Node23 -->
<g id="Node000023" class="node">
<title>Node23</title>
<g id="a_Node000023"><a xlink:href="group__am2320__interface__driver.html#ga3d13f9287cc7c82cd3cb575fa7d11fc1" target="_top" xlink:title="interface iic write command">
<polygon fill="white" stroke="#666666" points="258.88,-272 150.62,-272 150.62,-240 258.88,-240 258.88,-272"/>
<text xml:space="preserve" text-anchor="start" x="158.62" y="-258.5" font-family="Helvetica,sans-Serif" font-size="10.00">am2320_interface_iic</text>
<text xml:space="preserve" text-anchor="middle" x="204.75" y="-246.5" font-family="Helvetica,sans-Serif" font-size="10.00">_write_cmd</text>
</a>
</g>
</g>
<!-- Node1&#45;&gt;Node23 -->
<g id="edge22_Node000001_Node000023" class="edge">
<title>Node1&#45;&gt;Node23</title>
<g id="a_edge22_Node000001_Node000023"><a xlink:title=" ">
<path fill="none" stroke="#63b8ff" d="M48.87,-563.56C48.41,-521.91 52.31,-365.87 132.25,-281 134.77,-278.32 137.6,-275.93 140.64,-273.79"/>
<polygon fill="#63b8ff" stroke="#63b8ff" points="142.12,-276.98 148.96,-268.89 138.57,-270.95 142.12,-276.98"/>
</a>
</g>
</g>
<!-- Node24 -->
<g id="Node000024" class="node">
<title>Node24</title>
<g id="a_Node000024"><a xlink:href="group__am2320__base__driver.html#gaace023a07153eb1ff0dfb0f9c5083bce" target="_top" xlink:title="read the humidity data">
<polygon fill="white" stroke="#666666" points="263,-222 146.5,-222 146.5,-202 263,-202 263,-222"/>
<text xml:space="preserve" text-anchor="middle" x="204.75" y="-208.5" font-family="Helvetica,sans-Serif" font-size="10.00">am2320_read_humidity</text>
</a>
</g>
</g>
<!-- Node1&#45;&gt;Node24 -->
<g id="edge23_Node000001_Node000024" class="edge">
<title>Node1&#45;&gt;Node24</title>
<g id="a_edge23_Node000001_Node000024"><a xlink:title=" ">
<path fill="none" stroke="#63b8ff" d="M50.21,-563.71C55.87,-511.95 83.62,-280.71 132.25,-231 133.64,-229.58 135.12,-228.26 136.68,-227.04"/>
<polygon fill="#63b8ff" stroke="#63b8ff" points="138.42,-230.08 145.05,-221.83 134.71,-224.14 138.42,-230.08"/>
</a>
</g>
</g>
<!-- Node25 -->
<g id="Node000025" class="node">
<title>Node25</title>
<g id="a_Node000025"><a xlink:href="group__am2320__base__driver.html#ga54d54b501a35b23a2d8a5b1a21f8a253" target="_top" xlink:title="read the temperature data">
<polygon fill="white" stroke="#666666" points="270.5,-184 139,-184 139,-164 270.5,-164 270.5,-184"/>
<text xml:space="preserve" text-anchor="middle" x="204.75" y="-170.5" font-family="Helvetica,sans-Serif" font-size="10.00">am2320_read_temperature</text>
</a>
</g>
</g>
<!-- Node1&#45;&gt;Node25 -->
<g id="edge24_Node000001_Node000025" class="edge">
<title>Node1&#45;&gt;Node25</title>
<g id="a_edge24_Node000001_Node000025"><a xlink:title=" ">
<path fill="none" stroke="#63b8ff" d="M49.95,-563.69C54.54,-508.55 78.8,-248.91 132.25,-193 132.97,-192.25 133.71,-191.53 134.48,-190.83"/>
<polygon fill="#63b8ff" stroke="#63b8ff" points="136.17,-193.92 142.28,-185.26 132.11,-188.23 136.17,-193.92"/>
</a>
</g>
</g>
<!-- Node26 -->
<g id="Node000026" class="node">
<title>Node26</title>
<g id="a_Node000026"><a xlink:href="group__am2320__base__driver.html#ga58e1c22eb2ca74b40ed748d81c55d4ea" target="_top" xlink:title="read the temperature and humidity data">
<polygon fill="white" stroke="#666666" points="270.5,-146 139,-146 139,-114 270.5,-114 270.5,-146"/>
<text xml:space="preserve" text-anchor="start" x="147" y="-132.5" font-family="Helvetica,sans-Serif" font-size="10.00">am2320_read_temperature</text>
<text xml:space="preserve" text-anchor="middle" x="204.75" y="-120.5" font-family="Helvetica,sans-Serif" font-size="10.00">_humidity</text>
</a>
</g>
</g>
<!-- Node1&#45;&gt;Node26 -->
<g id="edge25_Node000001_Node000026" class="edge">
<title>Node1&#45;&gt;Node26</title>
<g id="a_edge25_Node000001_Node000026"><a xlink:title=" ">
<path fill="none" stroke="#63b8ff" d="M49.82,-563.53C53.89,-505.05 76.45,-219.25 132.25,-155 132.61,-154.59 132.97,-154.19 133.34,-153.79"/>
<polygon fill="#63b8ff" stroke="#63b8ff" points="135.51,-156.54 140.83,-147.39 130.96,-151.22 135.51,-156.54"/>
</a>
</g>
</g>
<!-- Node27 -->
<g id="Node000027" class="node">
<title>Node27</title>
<g id="a_Node000027"><a xlink:href="group__am2320__base__driver.html#gae9d091ad8a25fced25701bfbeba0d235" target="_top" xlink:title="set the chip interface">
<polygon fill="white" stroke="#666666" points="260.75,-96 148.75,-96 148.75,-76 260.75,-76 260.75,-96"/>
<text xml:space="preserve" text-anchor="middle" x="204.75" y="-82.5" font-family="Helvetica,sans-Serif" font-size="10.00">am2320_set_interface</text>
</a>
</g>
</g>
<!-- Node1&#45;&gt;Node27 -->
<g id="edge26_Node000001_Node000027" class="edge">
<title>Node1&#45;&gt;Node27</title>
<g id="a_edge26_Node000001_Node000027"><a xlink:title=" ">
<path fill="none" stroke="#63b8ff" d="M49.48,-563.87C51.88,-502.02 67.48,-175.47 132.25,-105 134.23,-102.85 136.42,-100.93 138.77,-99.22"/>
<polygon fill="#63b8ff" stroke="#63b8ff" points="140.29,-102.38 147.2,-94.35 136.79,-96.32 140.29,-102.38"/>
</a>
</g>
</g>
<!-- Node28 -->
<g id="Node000028" class="node">
<title>Node28</title>
<g id="a_Node000028"><a xlink:href="group__am2320__base__driver.html#ga1cb80f5742fcbf83ed7c34c6430b5253" target="_top" xlink:title="set user reg1">
<polygon fill="white" stroke="#666666" points="263.38,-58 146.12,-58 146.12,-38 263.38,-38 263.38,-58"/>
<text xml:space="preserve" text-anchor="middle" x="204.75" y="-44.5" font-family="Helvetica,sans-Serif" font-size="10.00">am2320_set_user_reg1</text>
</a>
</g>
</g>
<!-- Node1&#45;&gt;Node28 -->
<g id="edge27_Node000001_Node000028" class="edge">
<title>Node1&#45;&gt;Node28</title>
<g id="a_edge27_Node000001_Node000028"><a xlink:title=" ">
<path fill="none" stroke="#63b8ff" d="M49.34,-563.91C50.89,-499.29 62.58,-143.8 132.25,-67 133.56,-65.56 134.96,-64.23 136.44,-62.99"/>
<polygon fill="#63b8ff" stroke="#63b8ff" points="137.99,-66.16 144.41,-57.73 134.13,-60.31 137.99,-66.16"/>
</a>
</g>
</g>
<!-- Node29 -->
<g id="Node000029" class="node">
<title>Node29</title>
<g id="a_Node000029"><a xlink:href="group__am2320__base__driver.html#ga82ff83bcf2fa1194ecb5bcc3d232e0f9" target="_top" xlink:title="set user reg2">
<polygon fill="white" stroke="#666666" points="263.38,-20 146.12,-20 146.12,0 263.38,0 263.38,-20"/>
<text xml:space="preserve" text-anchor="middle" x="204.75" y="-6.5" font-family="Helvetica,sans-Serif" font-size="10.00">am2320_set_user_reg2</text>
</a>
</g>
</g>
<!-- Node1&#45;&gt;Node29 -->
<g id="edge28_Node000001_Node000029" class="edge">
<title>Node1&#45;&gt;Node29</title>
<g id="a_edge28_Node000001_Node000029"><a xlink:title=" ">
<path fill="none" stroke="#63b8ff" d="M49.21,-563.6C50.01,-495.38 57.79,-112 132.25,-29 133.58,-27.52 135,-26.15 136.52,-24.88"/>
<polygon fill="#63b8ff" stroke="#63b8ff" points="138.26,-27.92 144.7,-19.51 134.42,-22.07 138.26,-27.92"/>
</a>
</g>
</g>
</g>
</svg>
